<?xml version="1.0" standalone="no"?>
<!DOCTYPE svg PUBLIC "-//W3C//DTD SVG 20010904//EN"
 "http://www.w3.org/TR/2001/REC-SVG-20010904/DTD/svg10.dtd">
<svg version="1.0" xmlns="http://www.w3.org/2000/svg"
 width="512.000000pt" height="512.000000pt" viewBox="0 0 512.000000 512.000000"
 preserveAspectRatio="xMidYMid meet">
<metadata>
Created by potrace 1.14, written by Peter Selinger 2001-2017
</metadata>
<g transform="translate(0.000000,512.000000) scale(0.100000,-0.100000)"
fill="#000000" stroke="none">
<path d="M1263 4466 c-89 -22 -181 -74 -247 -140 -67 -66 -105 -126 -138 -221
l-22 -60 -1 -1454 c-1 -805 2 -1476 7 -1505 33 -192 158 -341 348 -416 l65
-25 870 0 c479 0 895 4 925 8 527 75 969 447 1129 949 66 209 64 165 66 1325
1 579 -2 1078 -7 1110 -29 184 -159 339 -346 412 l-67 26 -1265 2 c-994 1
-1276 -1 -1317 -11z m2589 -223 c64 -29 110 -66 143 -112 59 -86 57 -46 58
-1126 0 -544 -3 -1011 -7 -1038 -13 -87 -82 -179 -165 -221 -54 -27 -81 -34
-176 -41 -138 -12 -250 -61 -341 -150 -96 -94 -147 -200 -159 -326 -3 -35 -8
-81 -10 -102 -11 -95 -88 -197 -184 -244 l-56 -28 -820 0 -820 0 -58 27 c-77
36 -139 103 -168 180 l-22 60 0 1432 c1 787 3 1444 6 1459 16 79 89 177 157
212 80 42 68 41 1345 40 l1230 0 47 -22z m88 -2720 c0 -13 -84 -149 -129 -208
-97 -127 -234 -245 -370 -318 l-69 -37 15 47 c16 52 19 72 28 178 11 124 76
224 178 274 50 24 62 27 157 36 84 7 131 16 150 26 18 10 40 11 40 2z"/>
<path d="M1803 3412 c-48 -5 -93 -51 -93 -96 0 -50 18 -83 55 -101 29 -13 128
-15 800 -15 698 0 769 2 795 17 58 34 68 116 21 164 -16 16 -40 29 -53 30 -64
3 -1498 4 -1525 1z"/>
<path d="M1788 2768 c-35 -7 -74 -47 -81 -83 -6 -34 20 -89 52 -108 27 -16 93
-17 801 -17 702 0 774 2 800 17 34 19 50 52 50 97 0 44 -46 96 -87 97 -150 5
-1510 2 -1535 -3z"/>
<path d="M1798 2132 c-15 -2 -41 -16 -58 -32 -55 -52 -36 -143 37 -171 14 -5
256 -9 576 -9 529 0 553 1 584 20 35 21 54 69 46 114 -7 36 -57 76 -96 77 -99
3 -1066 3 -1089 1z"/>
</g>
</svg>
